<svg width="175" height="49" viewBox="0 0 175 49" fill="none" xmlns="http://www.w3.org/2000/svg">
<path d="M167.719 35.417H162.658C161.611 35.417 160.738 34.7236 160.738 33.8569C160.738 32.8168 161.611 32.2967 162.658 32.2967H171.906L174.002 27.62H162.658C157.947 27.62 155.328 30.3899 155.328 34.0302C155.328 37.6706 157.947 40.0938 161.96 40.0938H167.02C168.068 40.0938 168.941 40.7872 168.941 41.654C168.941 42.5207 168.243 43.2141 167.02 43.2141H155.852V47.8909H167.02C171.732 47.8909 174.351 45.1209 174.351 41.3073C174.351 37.4936 171.906 35.417 167.719 35.417ZM147.302 35.417H142.242C141.194 35.417 140.321 34.7236 140.321 33.8569C140.321 32.8168 141.194 32.2967 142.242 32.2967H151.49L153.585 27.62H142.242C137.53 27.62 134.915 30.3899 134.915 34.0302C134.915 37.6706 137.53 40.0938 141.547 40.0938H146.607C147.655 40.0938 148.528 40.7872 148.528 41.654C148.528 42.5207 147.83 43.2141 146.607 43.2141H135.439V47.8909H146.607C151.319 47.8909 153.934 45.1209 153.934 41.3073C154.109 37.4972 151.668 35.417 147.302 35.417ZM115.022 48.0606H132.474V43.3838H120.606V40.0938H132.299V35.417H120.606V32.127H132.474V27.4502H115.022V48.0642V48.0606ZM104.202 36.2838H98.4433V32.127H104.202C105.774 32.127 106.647 33.1671 106.647 34.2072C106.647 35.4206 105.774 36.2874 104.202 36.2874M112.228 34.0338C112.228 30.0504 109.434 27.4502 104.897 27.4502H92.8553V48.0642H98.4397V40.9642H100.535L106.818 48.0642H113.45L106.643 40.6175C110.132 39.7507 112.228 37.3275 112.228 34.0338ZM82.3886 36.6341H76.455V32.1306H82.3886C83.9602 32.1306 84.8334 33.1707 84.8334 34.3842C84.8334 35.5976 84.1349 36.6377 82.3886 36.6377M83.0871 27.4574H71.0452V48.0715H76.6296V41.3145H83.0871C87.7984 41.3145 90.5924 38.3712 90.5924 34.3842C90.4178 30.2274 87.6274 27.4538 83.0871 27.4538M70.0011 27.4538H62.8487L57.6135 33.6908L52.2037 27.4538H44.8731L54.121 37.6742L44.6984 48.0679H51.8508L57.4352 41.4842L63.0196 48.0679H70.3467L60.9241 37.5008L69.9974 27.4538H70.0011ZM26.5519 48.0679H43.9999V43.3911H31.958V40.101H43.6507V35.4242H31.958V32.1342H43.9999V27.4574H26.5519V48.0715V48.0679ZM165.623 13.5896L157.074 1.1193H150.093V21.56H155.677V8.56606L164.401 21.5564H171.033V1.1193H165.623V13.5932V13.5896ZM133.514 12.8962L136.479 5.96584L139.444 12.8962H133.51H133.514ZM132.816 1.11569L123.742 21.7297H129.851L131.597 17.573H141.194L142.94 21.7297H149.223L139.975 1.1193H132.819L132.816 1.11569ZM114.669 11.5094V11.1627C114.669 8.04602 116.415 5.96584 119.904 5.96584H126.012V0.945953H119.38C112.573 0.945953 109.085 5.27605 109.085 10.9929V11.3396C109.085 17.7499 113.097 21.3866 119.206 21.3866H121.127L123.393 16.7098H120.079C116.765 16.8832 114.669 14.9763 114.669 11.513M100.71 21.56H106.294V1.1193H100.71V21.56ZM89.8903 9.7795H84.1312V5.62275H89.8903C91.4619 5.62275 92.335 6.66284 92.335 7.70293C92.335 8.91637 91.4619 9.78311 89.8903 9.78311M97.9158 7.70293C97.9158 3.71953 95.1218 1.1193 90.5888 1.1193H78.5468V21.7333H84.1312V14.4599H86.2267L92.5097 21.5636H99.3164L92.3387 14.1168C95.8276 13.4234 97.9231 10.8268 97.9231 7.70654M57.4389 21.5636H74.887V16.8868H63.0196V13.5968H74.5377V8.91998H63.0196V5.62997H74.887V1.1193H57.4389V21.56V21.5636ZM39.8162 13.9399L35.1013 1.1193H26.5519V21.56H31.9616V6.83619L37.3714 21.56H42.2573L47.6671 6.83619V21.56H53.2515V1.1193H44.5275L39.8162 13.9363V13.9399ZM9.80229 12.8998L12.7673 5.96945L15.7323 12.8998H9.79865H9.80229ZM9.10015 1.1193L0.0268555 21.56H6.13514L7.8814 17.4032H17.4786L19.2248 21.56H25.5077L16.2562 1.1193H9.10015Z" fill="#006FCF"/>
</svg>
