<svg width="103" height="62" viewBox="0 0 103 62" fill="none" xmlns="http://www.w3.org/2000/svg">
<path fill-rule="evenodd" clip-rule="evenodd" d="M71.5582 61.2883C88.6637 61.2883 102.53 47.5866 102.53 30.6847C102.53 13.7828 88.6637 0.0810852 71.5582 0.0810852C63.8921 0.0810852 56.8765 2.83314 51.4681 7.39195C46.0597 2.83315 39.0441 0.0810874 31.3779 0.0810874C14.2725 0.0810874 0.405762 13.7828 0.405762 30.6847C0.405762 47.5866 14.2725 61.2883 31.3779 61.2883C39.0441 61.2883 46.0597 58.5362 51.4681 53.9774C56.8765 58.5362 63.8921 61.2883 71.5582 61.2883Z" fill="#ED0006"/>
<path fill-rule="evenodd" clip-rule="evenodd" d="M51.4678 53.9775C58.1272 48.3643 62.3499 40.0117 62.3499 30.6847C62.3499 21.3576 58.1272 13.0051 51.4678 7.39183C56.8762 2.8331 63.8917 0.0810852 71.5578 0.0810852C88.6632 0.0810852 102.53 13.7828 102.53 30.6847C102.53 47.5866 88.6632 61.2883 71.5578 61.2883C63.8917 61.2883 56.8762 58.5363 51.4678 53.9775Z" fill="#F9A000"/>
<path fill-rule="evenodd" clip-rule="evenodd" d="M51.4681 53.9775C58.1274 48.3642 62.3501 40.0117 62.3501 30.6847C62.3501 21.3577 58.1274 13.0053 51.4681 7.392C44.8087 13.0053 40.5861 21.3577 40.5861 30.6847C40.5861 40.0117 44.8087 48.3642 51.4681 53.9775Z" fill="#FF5E00"/>
</svg>
