<svg width="168" height="41" viewBox="0 0 168 41" fill="none" xmlns="http://www.w3.org/2000/svg">
<path d="M63.225 9.75541H53.9644C53.3309 9.75541 52.7918 10.2002 52.6927 10.8057L48.9474 33.7676C48.8817 34.1749 49.1697 34.5562 49.5909 34.6203C49.6304 34.6262 49.6706 34.6294 49.7114 34.6294H54.1325C54.7666 34.6294 55.3057 34.1833 55.4042 33.5779L56.4147 27.3845C56.5124 26.7797 57.0515 26.3335 57.685 26.3329H60.6167C66.7172 26.3329 70.2376 23.4787 71.157 17.8221C71.5716 15.3473 71.1745 13.4028 69.9764 12.0411C68.6599 10.546 66.3255 9.75476 63.2264 9.75476L63.225 9.75541ZM64.2931 18.1419C63.7869 21.3549 61.2475 21.3549 58.7926 21.3549H57.395L58.3754 15.3544C58.435 14.9918 58.7578 14.7244 59.1375 14.7244H59.7776C61.4498 14.7244 63.0275 14.7244 63.8424 15.6464C64.3286 16.1962 64.4773 17.0133 64.2918 18.1419H64.2931ZM90.9071 18.0383H86.4726C86.093 18.0383 85.7695 18.3057 85.7106 18.6684L85.5144 19.8675L85.2043 19.4331C84.244 18.0856 82.1032 17.6356 79.9663 17.6356C75.0658 17.6356 70.8798 21.2247 70.0648 26.2591C69.6409 28.7701 70.2436 31.1717 71.7169 32.8462C73.0682 34.386 75.0022 35.0276 77.3024 35.0276C81.2514 35.0276 83.4405 32.5729 83.4405 32.5729L83.2429 33.7643C83.1753 34.1716 83.4626 34.5543 83.8831 34.6191C83.9233 34.6255 83.9635 34.6281 84.0036 34.6281H87.9981C88.6323 34.6281 89.1713 34.182 89.2698 33.5766L91.6665 18.9002C91.7341 18.4948 91.4482 18.1128 91.029 18.048C90.9888 18.0416 90.9479 18.0383 90.9071 18.0383ZM84.7255 26.3841C84.2976 28.8336 82.2867 30.4782 79.7219 30.4782C78.4341 30.4782 77.4049 30.0787 76.7439 29.3218C76.0884 28.57 75.8392 27.5004 76.0482 26.3089C76.448 23.8801 78.4924 22.1817 81.0177 22.1817C82.2773 22.1817 83.3005 22.5864 83.9748 23.3498C84.6505 24.121 84.9184 25.1972 84.7249 26.3834L84.7255 26.3841ZM114.526 18.0383H110.069C109.643 18.039 109.243 18.2436 109.004 18.5842L102.858 27.3385L100.252 18.9261C100.088 18.399 99.5864 18.0383 99.0172 18.0383H94.6377C94.2111 18.037 93.8649 18.3705 93.8636 18.783C93.8636 18.8658 93.8777 18.9474 93.9051 19.0258L98.8137 32.9543L94.1991 39.2533C93.952 39.5893 94.0337 40.0555 94.3812 40.2938C94.5118 40.3838 94.6685 40.4317 94.8286 40.4317H99.2797C99.7016 40.4317 100.097 40.2329 100.337 39.8975L115.159 19.2097C115.402 18.871 115.315 18.4061 114.965 18.1711C114.836 18.0843 114.682 18.0377 114.525 18.0377L114.526 18.0383Z" fill="#253B80"/>
<path d="M129.28 9.75545H120.018C119.385 9.75545 118.846 10.2009 118.748 10.8057L115.003 33.7676C114.936 34.1743 115.223 34.5556 115.643 34.6197C115.683 34.6256 115.723 34.6288 115.763 34.6288H120.516C120.96 34.6288 121.336 34.3161 121.405 33.8932L122.468 27.3845C122.566 26.7797 123.105 26.3336 123.738 26.3329H126.669C132.77 26.3329 136.289 23.4787 137.21 17.8221C137.626 15.3473 137.226 13.4029 136.028 12.0411C134.714 10.5461 132.38 9.7548 129.281 9.7548L129.28 9.75545ZM130.348 18.142C129.843 21.3549 127.304 21.3549 124.848 21.3549H123.452L124.433 15.3544C124.492 14.9918 124.814 14.7244 125.194 14.7244H125.834C127.505 14.7244 129.084 14.7244 129.899 15.6465C130.385 16.1962 130.532 17.0134 130.347 18.142H130.348ZM156.961 18.0384H152.529C152.149 18.0371 151.826 18.3051 151.768 18.6684L151.572 19.8676L151.261 19.4331C150.301 18.0856 148.161 17.6356 146.024 17.6356C141.124 17.6356 136.94 21.2247 136.124 26.2591C135.702 28.7702 136.302 31.1718 137.775 32.8462C139.129 34.386 141.06 35.0277 143.36 35.0277C147.309 35.0277 149.498 32.573 149.498 32.573L149.301 33.7644C149.233 34.1717 149.52 34.5543 149.941 34.6191C149.982 34.6256 150.023 34.6288 150.064 34.6282H154.057C154.691 34.6282 155.229 34.182 155.328 33.5766L157.726 18.9002C157.791 18.4923 157.501 18.1102 157.079 18.0474C157.04 18.0416 157 18.0384 156.961 18.039V18.0384ZM150.779 26.3841C150.354 28.8336 148.341 30.4783 145.776 30.4783C144.491 30.4783 143.459 30.0788 142.798 29.3218C142.142 28.5701 141.896 27.5004 142.102 26.309C142.505 23.8802 144.546 22.1818 147.072 22.1818C148.331 22.1818 149.354 22.5865 150.029 23.3499C150.707 24.1211 150.975 25.1972 150.779 26.3834L150.779 26.3841ZM162.189 10.3855L158.388 33.7676C158.322 34.1743 158.608 34.5556 159.028 34.6197C159.068 34.6256 159.109 34.6288 159.149 34.6288H162.97C163.605 34.6288 164.144 34.1833 164.241 33.5773L167.989 10.6166C168.056 10.2093 167.768 9.82732 167.347 9.76322C167.308 9.75739 167.268 9.75415 167.228 9.75415H162.949C162.569 9.75545 162.247 10.0229 162.188 10.3855H162.189Z" fill="#179BD7"/>
<path d="M10.4887 39.0914L11.1972 34.7415L9.61952 34.7059H2.08661L7.32128 2.61085C7.35342 2.40818 7.53423 2.2586 7.74651 2.2599H20.4485C24.6653 2.2599 27.5749 3.10813 29.0943 4.78323C29.8068 5.56866 30.2602 6.3897 30.4798 7.29297C30.7102 8.24092 30.7142 9.37342 30.4892 10.7552L30.4731 10.8562V11.7414L31.1857 12.1318C31.7294 12.3979 32.2183 12.7586 32.6281 13.195C33.2375 13.8665 33.6312 14.7205 33.798 15.7326C33.9701 16.7738 33.9131 18.0125 33.6312 19.4143C33.3064 21.0273 32.7808 22.4324 32.0716 23.5817C31.4455 24.6119 30.6037 25.5035 29.6006 26.2002C28.6584 26.8471 27.5381 27.3379 26.2724 27.6526C25.0456 27.9614 23.6467 28.1175 22.1125 28.1175H21.1241C20.417 28.1175 19.7306 28.3635 19.1915 28.8051C18.6531 29.2513 18.2962 29.867 18.1844 30.5437L18.11 30.9354L16.8591 38.6019L16.8022 38.8836C16.7875 38.9729 16.7614 39.017 16.7239 39.0474C16.687 39.0765 16.6415 39.0927 16.5939 39.0934H10.4907L10.4887 39.0914Z" fill="#253B80"/>
<path d="M31.8592 10.9579C31.8211 11.1923 31.7782 11.4319 31.7293 11.6779C30.0545 19.9939 24.3237 22.8662 17.0044 22.8662H13.2778C12.3824 22.8662 11.6284 23.4949 11.4891 24.3483L9.58127 36.0488L9.04087 39.3653C8.9585 39.8685 9.31341 40.3405 9.83373 40.4201C9.88262 40.4279 9.93217 40.4311 9.9824 40.4311H16.5919C17.3747 40.4311 18.0396 39.8814 18.1629 39.1348L18.2278 38.8104L19.472 31.1744L19.5517 30.7554C19.6736 30.0063 20.3399 29.4565 21.1227 29.4565H22.1111C28.515 29.4565 33.528 26.9429 34.9932 19.6682C35.6053 16.6294 35.2885 14.0918 33.6686 12.3073C33.155 11.755 32.5423 11.2985 31.8592 10.9585V10.9579Z" fill="#179BD7"/>
<path d="M30.1074 10.2818C29.5723 10.1322 29.0286 10.0157 28.4781 9.93215C27.3913 9.77092 26.2924 9.69322 25.1928 9.70034H15.2371C14.4543 9.70034 13.788 10.2514 13.6674 10.9992L11.5493 23.9695L11.4884 24.3476C11.625 23.4942 12.3844 22.8648 13.277 22.8655H17.0037C24.3229 22.8655 30.0532 19.9912 31.7286 11.6772C31.7789 11.4311 31.821 11.1915 31.8585 10.9572C31.4166 10.7331 30.9559 10.5453 30.4811 10.3958C30.3565 10.3556 30.232 10.3181 30.1061 10.2818H30.1074Z" fill="#222D65"/>
<path d="M13.6675 10.9993C13.7867 10.2507 14.4537 9.69906 15.2372 9.70165H25.1929C26.3721 9.70165 27.473 9.77611 28.4782 9.93346C29.1579 10.0371 29.8289 10.1912 30.4838 10.3958C30.978 10.5544 31.4374 10.7415 31.8613 10.9572C32.3595 7.88409 31.8572 5.792 30.1389 3.89739C28.2431 1.81177 24.8239 0.918854 20.4491 0.918854H7.7471C6.85311 0.918854 6.09105 1.54758 5.9531 2.40229L0.662182 34.8282C0.567761 35.4038 0.97424 35.9445 1.56956 36.0358C1.62581 36.0442 1.68206 36.0487 1.73898 36.0487H9.58061L11.5494 23.9701L13.6675 10.9999V10.9993Z" fill="#253B80"/>
</svg>
