<svg width="149" height="50" viewBox="0 0 149 50" fill="none" xmlns="http://www.w3.org/2000/svg">
<path fill-rule="evenodd" clip-rule="evenodd" d="M37.388 49.4502H24.5106L14.8541 11.5266C14.3958 9.78215 13.4226 8.23993 11.9911 7.51306C8.41855 5.68641 4.48186 4.23267 0.187302 3.49948V2.03942H20.9318C23.7948 2.03942 25.9421 4.23267 26.3 6.77987L31.3103 34.1354L44.1815 2.03942H56.701L37.388 49.4502ZM63.8585 49.4502H51.6968L61.7112 2.03942H73.8728L63.8585 49.4502ZM89.6071 15.1736C89.965 12.6201 92.1123 11.16 94.6174 11.16C98.5541 10.7934 102.842 11.5266 106.421 13.3469L108.568 3.13917C104.99 1.67911 101.053 0.945923 97.4805 0.945923C85.6767 0.945923 77.0876 7.51302 77.0876 16.6273C77.0876 23.561 83.1715 27.2017 87.4661 29.3949C92.1123 31.5819 93.9017 33.0419 93.5438 35.2288C93.5438 38.5092 89.965 39.9693 86.3925 39.9693C82.0979 39.9693 77.8033 38.8758 73.8729 37.0492L71.7257 47.2633C76.0202 49.0836 80.6664 49.8168 84.961 49.8168C98.1962 50.1771 106.421 43.6163 106.421 33.7688C106.421 21.3678 89.6071 20.6409 89.6071 15.1736ZM148.984 49.4502L139.327 2.03942H128.955C126.808 2.03942 124.66 3.49948 123.945 5.68641L106.063 49.4502H118.583L121.082 42.5228H136.464L137.896 49.4502H148.984ZM130.744 14.8072L134.317 32.6755H124.303L130.744 14.8072Z" fill="#172B85"/>
</svg>
